      <svg width="700" height="400" viewBox="0 0 700 400" xmlns="http://www.w3.org/2000/svg">
        <rect width="700" height="400" fill="#0f0f0f" rx="10"/>
        <text x="350" y="30" fill="#ffffff" font-family="monospace" font-size="16" text-anchor="middle">Meta-Playbook v2.1: 20-Step Execution Matrix</text>
        
        <!-- Grid Generation -->
        <g fill="#1e1e1e" stroke="#3498db" stroke-width="1">
          <rect x="50" y="60" width="120" height="60" rx="5"/>
          <rect x="200" y="60" width="120" height="60" rx="5"/>
          <rect x="350" y="60" width="120" height="60" rx="5"/>
          <rect x="500" y="60" width="120" height="60" rx="5"/>
          
          <rect x="50" y="150" width="120" height="60" rx="5"/>
          <rect x="200" y="150" width="120" height="60" rx="5"/>
          <rect x="350" y="150" width="120" height="60" rx="5"/>
          <rect x="500" y="150" width="120" height="60" rx="5"/>
          
          <rect x="50" y="240" width="120" height="60" rx="5"/>
          <rect x="200" y="240" width="120" height="60" rx="5"/>
          <rect x="350" y="240" width="120" height="60" rx="5"/>
          <rect x="500" y="240" width="120" height="60" rx="5"/>
        </g>
        
        <text x="110" y="95" fill="#ffffff" font-family="monospace" font-size="10" text-anchor="middle">INIT_PHASE</text>
        <text x="350" y="350" fill="#3498db" font-family="monospace" font-size="12" text-anchor="middle">... 20-Step Recursive Pipeline Active ...</text>
      </svg>
